<?xml version="1.0" encoding="UTF-8"?>
<!DOCTYPE svg PUBLIC "-//W3C//DTD SVG 1.1//EN" "http://www.w3.org/Graphics/SVG/1.1/DTD/svg11.dtd">
<!-- Creator: CorelDRAW 2020 (64 Bit) -->
<svg xmlns="http://www.w3.org/2000/svg" xml:space="preserve" width="27.89mm" height="26.9412mm" version="1.1" style="shape-rendering:geometricPrecision; text-rendering:geometricPrecision; image-rendering:optimizeQuality; fill-rule:evenodd; clip-rule:evenodd"
viewBox="0 0 454.18 438.73"
 xmlns:xlink="http://www.w3.org/1999/xlink"
 xmlns:xodm="http://www.corel.com/coreldraw/odm/2003">
 <defs>
  <style type="text/css">
   <![CDATA[
    .fil0 {fill:white}
   ]]>
  </style>
 </defs>
 <g id="Camada_x0020_1">
  <metadata id="CorelCorpID_0Corel-Layer"/>
  <path class="fil0" d="M170.28 386.05c-15.07,-0.03 -22.99,4.3 -41.03,0.54 -12.78,-2.66 -23.78,-10.21 -29.36,-17.7 -9.08,-12.19 -10.96,-29.25 -27.86,-40.93 -5.46,-3.77 -10.67,-4.94 -11.59,-13.17 26.91,-10.29 42.43,19.6 49.43,27.96 22.15,26.48 54.42,17.55 60.42,10.97 3.13,-3.33 3.49,-11.05 5.71,-15.86 5.01,-10.88 7.4,-7.74 8.17,-13.94 -73.56,-7.69 -107.05,-52.08 -101.39,-119.02 1.41,-16.61 10.81,-42.77 22.46,-50.66 -1.58,-12.79 -4.82,-17.74 -3.87,-33 0.48,-7.65 2.81,-25.23 8.95,-28.25 19.44,0.08 40.45,10.7 53.41,19.4 10.42,6.99 30.35,-3.38 63.8,-3.4 11.38,-0 23.21,0.97 33.99,2.68 19.96,3.17 18.76,7.19 29.47,0.34 14.47,-9.25 34.5,-20.06 54.96,-18.76 3.01,8.34 6.05,17.7 6.64,28.11 0.91,16.04 -2.94,20.97 -3.97,32.74 25.91,23.3 29.17,76.24 13.24,113.66 -15.01,35.28 -45.98,49.48 -92.39,56.17 1.12,3.99 6.92,9.74 9.91,17.59 2.98,7.82 3.98,16.9 4.04,26.33 0.44,70.02 -9.25,81.37 35.3,62.87 13.11,-5.44 26.63,-13.12 37.4,-20.47 39.76,-27.15 79.39,-74.49 92.95,-138.81 29.28,-138.86 -72.17,-252 -186.57,-268.81 -137.77,-20.24 -248.9,78.57 -261.2,198.35 -5.4,52.64 6.09,96.92 31.05,139.74 6.14,10.54 17.67,26.69 24.5,33.41l21.76 21.38c14.32,11.46 68.01,48.94 85.63,42.47 8.21,-3.02 6.71,-12.93 6.56,-22.97 -0.14,-9.13 0.4,-20.11 -0.53,-28.97z"/>
 </g>
</svg>
