<?xml version="1.0" encoding="UTF-8"?>
<!DOCTYPE svg PUBLIC "-//W3C//DTD SVG 1.1//EN" "http://www.w3.org/Graphics/SVG/1.1/DTD/svg11.dtd">
<!-- Creator: CorelDRAW 2020 (64 Bit) -->
<svg xmlns="http://www.w3.org/2000/svg" xml:space="preserve" width="27.89mm" height="27.8928mm" version="1.1" style="shape-rendering:geometricPrecision; text-rendering:geometricPrecision; image-rendering:optimizeQuality; fill-rule:evenodd; clip-rule:evenodd"
viewBox="0 0 469.35 469.39"
 xmlns:xlink="http://www.w3.org/1999/xlink"
 xmlns:xodm="http://www.corel.com/coreldraw/odm/2003">
 <defs>
  <style type="text/css">
   <![CDATA[
    .fil0 {fill:white}
   ]]>
  </style>
 </defs>
 <g id="Camada_x0020_1">
  <metadata id="CorelCorpID_0Corel-Layer"/>
  <g id="_2043405513664">
   <path class="fil0" d="M92.78 1c-35.01,3.87 -59.76,23.46 -73.63,43.53 -21.98,31.82 -18.75,55.88 -18.75,99.04l0 175.46c0,17.79 -1.27,41.22 0.68,58.26 4.1,35.88 23.79,58.7 43.68,73.15 28.88,20.99 58.37,18.54 99.03,18.54l175.46 0c17.75,0 41.07,1.26 58.07,-0.65 34.17,-3.85 60,-24.31 73.1,-43.74 21.81,-32.35 18.55,-55.35 18.55,-98.79 0,-21.4 1.15,-217.69 -0.6,-233.48 -3.93,-35.52 -23.59,-58.79 -43.46,-73.25 -29.4,-21.4 -58.16,-18.71 -98.88,-18.71 -21.73,0 -217.06,-1.16 -233.26,0.63zm66.84 74.45c-43.21,3.12 -76.72,35.66 -83.22,76.03 -2.25,13.99 -1.15,97.9 -1.15,118.6 0,12.71 -0.64,27.18 0.22,39.68 2.99,43.37 36.05,76.87 76.34,83.27 12.68,2.02 62.33,1.12 78.6,1.12 25.1,0 54.64,1.41 79.16,-0.21 43.36,-2.85 76.94,-35.98 83.42,-75.79 2.34,-14.37 1.21,-97.84 1.21,-118.87 0,-12.75 0.66,-27.42 -0.25,-39.94 -3.16,-43.35 -36.09,-76.7 -76.56,-83.07 -13.71,-2.16 -98.12,-1.09 -118.61,-1.09 -12.52,0 -26.91,-0.63 -39.15,0.25z"/>
   <path class="fil0" d="M155.45 103.56c-19.59,3.6 -32.71,13.82 -40.8,25.17 -11.98,16.82 -12.05,30.06 -12.05,53.99 0,14.17 -0.96,119.47 0.8,130.81 2.98,19.13 14.07,32.72 24.75,40.71 16.55,12.38 30.04,12.57 54.04,12.57 14.14,0 120.53,1.05 131.87,-0.91 18.37,-3.17 32.67,-14.13 40.52,-25.09 12.25,-17.1 12.23,-29.76 12.23,-54.16 0,-14.25 1.01,-119.62 -0.84,-131.02 -3.17,-19.55 -13.84,-32.24 -24.96,-40.61 -16.22,-12.21 -30.24,-12.47 -54.14,-12.47 -22.09,0 -44.18,0 -66.27,0 -17.25,0 -49.87,-1.8 -65.16,1.01zm161.07 25.54c-26.74,5.52 -17.59,44.12 7.83,38.35 24.76,-5.62 16.43,-43.37 -7.83,-38.35zm-93.45 24.8c-40.76,6.05 -75.83,43.47 -69.29,91.74 5.59,41.31 44.1,76.85 92.61,69.87 40.63,-5.84 76.03,-44.05 69.21,-92.14 -5.82,-41.04 -44.09,-76.67 -92.53,-69.48z"/>
   <path class="fil0" d="M226.84 181.02c-27.38,4.32 -50.99,29.19 -45.74,62.37 4.26,26.9 30.06,49.98 62.17,44.93 26.69,-4.2 50.04,-29.68 45.12,-61.89 -4.07,-26.66 -29.59,-50.46 -61.56,-45.41z"/>
  </g>
 </g>
</svg>
