<?xml version="1.0" encoding="UTF-8"?>
<!DOCTYPE svg PUBLIC "-//W3C//DTD SVG 1.1//EN" "http://www.w3.org/Graphics/SVG/1.1/DTD/svg11.dtd">
<!-- Creator: CorelDRAW -->
<svg xmlns="http://www.w3.org/2000/svg" xml:space="preserve" width="27.89mm" height="27.89mm" version="1.1" style="shape-rendering:geometricPrecision; text-rendering:geometricPrecision; image-rendering:optimizeQuality; fill-rule:evenodd; clip-rule:evenodd"
viewBox="0 0 124.18 124.18"
 xmlns:xlink="http://www.w3.org/1999/xlink"
 xmlns:xodm="http://www.corel.com/coreldraw/odm/2003">
 <defs>
  <style type="text/css">
   <![CDATA[
    .fil0 {fill:#FEFEFE}
   ]]>
  </style>
 </defs>
 <g id="Camada_x0020_1">
  <metadata id="CorelCorpID_0Corel-Layer"/>
  <path class="fil0" d="M-0 7.55l0 109.23 0.18 0.38c0.33,0.78 -0.04,-0.14 0.15,0.37 0.1,0.27 0.13,0.42 0.24,0.74 1.49,4.46 5.4,5.07 6.97,5.9l109.23 0 1.31 -0.52c1.41,-0.46 2.37,-1.06 3.46,-2.11 1.99,-1.92 1.91,-3.56 2.63,-4.92l0 -109.23 -0.34 -0.75c-2.16,-5.71 -3.99,-4.92 -7.21,-6.65l-109.23 0c-0.91,0.52 -1.72,0.49 -2.83,1.17 -3.75,2.28 -3.45,4.29 -4.56,6.38zm25.36 9.03c-13.82,2.49 -10.27,23.33 3.9,20.89 5.23,-0.9 9.42,-5.96 8.35,-12.28 -0.88,-5.18 -6,-9.74 -12.25,-8.61zm-7.26 89.49l18.16 0 -0.03 -59.51 -18.13 0 0 59.51zm28.51 -0.19l17.91 0c0.04,-3.91 -0.33,-30.88 0.27,-32.12 -0.26,-12.09 16.51,-17.68 21.72,-6.5 2.11,4.54 1.45,13.06 1.45,18.59 0,6.74 0,13.48 0,20.22l18.13 0c-0,-9.41 -0,-18.82 -0,-28.22 0,-9.99 0.42,-16.34 -4.57,-23.65 -6.27,-9.18 -18.88,-11.51 -30.3,-5.81 -5.51,2.75 -7.02,6.22 -7.51,6.51l-0.07 -8.34 -17.06 0 0.04 59.32z"/>
 </g>
</svg>
