<?xml version="1.0" encoding="UTF-8"?>
<!DOCTYPE svg PUBLIC "-//W3C//DTD SVG 1.1//EN" "http://www.w3.org/Graphics/SVG/1.1/DTD/svg11.dtd">
<!-- Creator: CorelDRAW 2020 (64 Bit) -->
<svg xmlns="http://www.w3.org/2000/svg" xml:space="preserve" width="27.89mm" height="23.202mm" version="1.1" style="shape-rendering:geometricPrecision; text-rendering:geometricPrecision; image-rendering:optimizeQuality; fill-rule:evenodd; clip-rule:evenodd"
viewBox="0 0 476.3 396.24"
 xmlns:xlink="http://www.w3.org/1999/xlink"
 xmlns:xodm="http://www.corel.com/coreldraw/odm/2003">
 <defs>
  <style type="text/css">
   <![CDATA[
    .fil0 {fill:white}
   ]]>
  </style>
 </defs>
 <g id="Camada_x0020_1">
  <metadata id="CorelCorpID_0Corel-Layer"/>
  <path class="fil0" d="M233.05 121.8c-40.21,1.32 -89.98,-16.79 -119.56,-33.54 -56.16,-31.79 -75.65,-64 -83.55,-68.5 -18.37,21.15 -17.86,73.74 5.12,106.74 7.56,10.86 16.52,15.63 22.76,24.26 -21.01,0.36 -26.73,-7.45 -41.58,-10.17 -1.8,48.04 35.99,88.77 77.37,98.47 -17.13,3.26 -23.59,2.94 -41.76,2.26 5.07,29.67 38.85,58.92 71.27,66.13l16.88 4.12c-13.31,12.35 -38.53,24.88 -57.89,31.19 -30.13,9.81 -48.17,9.37 -82.1,9.41 7,9.45 49.96,26.35 64.62,31.14 78.11,25.53 167.57,12.07 234.22,-29.87 39.43,-24.82 69.84,-59.74 92.51,-99.56 45.09,-79.19 35.19,-148.87 38.39,-155.37 0.64,-1.3 37.53,-29.79 46.57,-50.05 -15.01,2.17 -30.8,12.68 -51.5,12.99 6.18,-6.97 15.44,-12.24 23.61,-22.89 4.5,-5.87 15.05,-22.49 15.45,-30.04 -15.36,4.99 -25.49,14.28 -52.53,20.91 -10.6,2.6 -11.67,-0.52 -17.9,-6.27 -53.25,-49.17 -173.12,-21.73 -160.38,98.65z"/>
 </g>
</svg>
