<?xml version="1.0" encoding="UTF-8"?>
<!DOCTYPE svg PUBLIC "-//W3C//DTD SVG 1.1//EN" "http://www.w3.org/Graphics/SVG/1.1/DTD/svg11.dtd">
<!-- Creator: CorelDRAW 2020 (64 Bit) -->
<svg xmlns="http://www.w3.org/2000/svg" xml:space="preserve" width="27.89mm" height="19.5744mm" version="1.1" style="shape-rendering:geometricPrecision; text-rendering:geometricPrecision; image-rendering:optimizeQuality; fill-rule:evenodd; clip-rule:evenodd"
viewBox="0 0 474.19 332.81"
 xmlns:xlink="http://www.w3.org/1999/xlink"
 xmlns:xodm="http://www.corel.com/coreldraw/odm/2003">
 <defs>
  <style type="text/css">
   <![CDATA[
    .fil0 {fill:white}
   ]]>
  </style>
 </defs>
 <g id="Camada_x0020_1">
  <metadata id="CorelCorpID_0Corel-Layer"/>
  <path class="fil0" d="M0.01 149.69c0,41.28 -0.41,74.41 6.6,116.45 4.45,26.72 15.57,44.22 36.26,53.43 39.63,17.65 352.65,17.98 390.44,-1.03 20.66,-10.39 30.47,-28.17 34.7,-56.47 8.26,-55.25 8.26,-136.08 0,-191.33 -4.23,-28.29 -14.04,-46.09 -34.7,-56.47 -37.83,-19.02 -350.8,-18.69 -390.44,-1.03 -20.68,9.21 -31.8,26.72 -36.26,53.43 -4.19,25.11 -6.6,56.91 -6.6,83.02zm189.57 87.48l122.62 -70.24 -121.88 -71.46 -0.74 141.7z"/>
 </g>
</svg>
